Coordinates
version=1
nRows=11
nColumns=63
inDegrees=yes

Units are S.I. units (second, meters, Newtons, ...)
If the header above contains a line with 'inDegrees', this indicates whether rotational values are in degrees (yes) or radians (no).

endheader
time	pelvis_tilt	pelvis_list	pelvis_rotation	pelvis_tx	pelvis_ty	pelvis_tz	hip_flexion_r	hip_adduction_r	hip_rotation_r	knee_angle_r	knee_angle_r_beta	ankle_angle_r	subtalar_angle_r	mtp_angle_r	hip_flexion_l	hip_adduction_l	hip_rotation_l	knee_angle_l	knee_angle_l_beta	ankle_angle_l	subtalar_angle_l	mtp_angle_l	L5_S1_Flex_Ext	L5_S1_Lat_Bending	L5_S1_axial_rotation	L4_L5_Flex_Ext	L4_L5_Lat_Bending	L4_L5_axial_rotation	L3_L4_Flex_Ext	L3_L4_Lat_Bending	L3_L4_axial_rotation	L2_L3_Flex_Ext	L2_L3_Lat_Bending	L2_L3_axial_rotation	L1_L2_Flex_Ext	L1_L2_Lat_Bending	L1_L2_axial_rotation	L1_T12_Flex_Ext	L1_T12_Lat_Bending	L1_T12_axial_rotation	Abs_r3	Abs_r2	Abs_r1	Abs_t1	Abs_t2	neck_flexion	neck_bending	neck_rotation	arm_flex_r	arm_add_r	arm_rot_r	elbow_flex_r	pro_sup_r	wrist_flex_r	wrist_dev_r	arm_flex_l	arm_add_l	arm_rot_l	elbow_flex_l	pro_sup_l	wrist_flex_l	wrist_dev_l
1.711864	7.567868	1.580014	93.267645	0.118911	0.831223	0.775527	3.864877	5.106364	-1.366804	11.344418	0.197997	35.054322	7.158035	0.000000	-0.867552	-3.819191	16.061419	1.232920	0.021519	35.645343	0.015098	0.000000	-0.070047	1.024750	1.192861	-0.130083	1.362918	1.267414	-0.115079	2.491578	1.267414	-0.080056	2.491578	1.043753	-0.065045	2.089671	0.969199	-0.040025	1.587338	0.894645	-0.500335	11.592180	6.634333	0.000000	0.000000	23.518992	-3.782827	15.462938	10.033331	-17.969715	41.842071	30.503662	79.310836	-12.975505	-4.247290	14.858884	-0.352880	138.026634	4.450200	7.150331	-15.604420	-18.628916
1.728814	7.427991	0.484941	93.833967	0.119161	0.828532	0.783008	5.794109	4.697964	-3.536297	12.086423	0.210948	35.826275	9.299468	0.000000	1.003826	-3.553692	16.054306	1.578830	0.027556	35.693298	0.613914	0.000000	-0.011643	0.990153	1.051246	-0.021622	1.316904	1.116948	-0.019128	2.407459	1.116948	-0.013307	2.407459	0.919840	-0.010812	2.019121	0.854137	-0.006653	1.533748	0.788434	-0.083164	11.200813	5.846713	0.000000	0.000000	24.824172	-2.965642	18.048371	11.669973	-17.123694	41.394962	32.289028	81.716154	-13.870152	-4.442287	15.532530	-0.545137	130.791085	7.015531	11.499089	-15.042070	-18.007394
1.745763	7.307193	-0.575024	94.504396	0.119368	0.825913	0.790230	7.613524	4.315431	-5.535589	12.691210	0.221503	36.450852	11.136639	0.000000	2.840636	-3.309826	16.054058	1.964944	0.034295	35.692202	1.258791	0.000000	0.047843	0.953763	0.884128	0.088849	1.268504	0.939386	0.078601	2.318978	0.939386	0.054680	2.318978	0.773612	0.044427	1.944913	0.718354	0.027337	1.477378	0.663096	0.341736	10.789154	4.917253	0.000000	0.000000	25.961434	-1.945324	20.388083	13.254419	-16.239876	41.169617	34.265131	83.967815	-14.726442	-4.555161	16.133143	-0.933112	123.128855	10.029232	15.165653	-14.388520	-17.472258
1.762712	7.213667	-1.561442	95.225644	0.119542	0.823487	0.796969	9.261984	3.980896	-7.227736	13.146697	0.229453	36.894872	12.541127	0.000000	4.572503	-3.095049	16.122270	2.371328	0.041387	35.627583	1.805038	0.000000	0.107185	0.918422	0.700123	0.199053	1.221501	0.743880	0.176094	2.233051	0.743880	0.122501	2.233051	0.612607	0.099532	1.872846	0.568850	0.061245	1.422636	0.525092	0.765609	10.389373	3.893872	0.000000	0.000000	26.877250	-0.797827	22.437956	14.733131	-15.344611	41.141726	36.394004	86.457627	-15.284021	-4.546490	16.589698	-1.473395	115.049610	13.390916	18.539757	-13.793491	-16.785300
1.779661	7.167291	-2.437667	95.972996	0.119641	0.821357	0.803047	10.683719	3.717190	-8.611237	13.437344	0.234526	37.160707	13.538152	0.000000	6.149019	-2.927091	16.240869	2.790342	0.048701	35.534002	2.273318	0.000000	0.164358	0.889019	0.500060	0.305229	1.182396	0.531314	0.270023	2.161561	0.531314	0.187844	2.161561	0.437553	0.152623	1.812888	0.406299	0.093914	1.377091	0.375045	1.173991	10.056763	2.781185	0.000000	0.000000	27.558454	0.386279	24.241369	16.091595	-14.459821	41.411504	38.534569	89.206019	-15.250962	-4.425175	16.838015	-2.117828	106.388097	17.050963	22.880825	-13.123136	-15.606964
1.796610	7.164218	-3.173551	96.705991	0.119694	0.819596	0.808350	11.841881	3.529767	-9.619906	13.568975	0.236823	37.259122	14.081369	0.000000	7.521621	-2.805533	16.474795	3.204325	0.055926	35.413842	2.562629	0.000000	0.218069	0.865247	0.293056	0.404975	1.150779	0.311372	0.358265	2.103762	0.311372	0.249231	2.103762	0.256424	0.202499	1.764412	0.238108	0.124604	1.340268	0.219792	1.557642	9.787851	1.629890	0.000000	0.000000	27.991489	1.544275	25.673988	17.338425	-13.613223	42.168374	40.571053	91.567772	-14.612941	-3.984870	16.959493	-2.861408	97.028708	20.922866	28.213537	-12.076118	-13.972408
1.813559	7.206459	-3.744622	97.390252	0.119723	0.818259	0.812847	12.722638	3.424798	-10.360440	13.567643	0.236800	37.246960	14.336021	0.000000	8.656122	-2.734405	16.739591	3.600146	0.062834	35.305661	2.783659	0.000000	0.265398	0.848565	0.088317	0.492871	1.128591	0.093837	0.436023	2.063200	0.093837	0.303324	2.063200	0.077277	0.246449	1.730393	0.071757	0.151649	1.314427	0.066238	1.895713	9.599132	0.491191	0.000000	0.000000	28.209277	2.589372	26.724624	18.519442	-12.824733	43.705204	42.389222	92.731656	-13.507080	-3.229298	17.069073	-3.684759	87.336017	24.941799	34.323370	-10.629645	-11.927413
1.830508	7.280281	-4.141584	98.003087	0.119750	0.817365	0.816569	13.335654	3.384351	-11.014708	13.470295	0.235101	37.182835	14.545510	0.000000	9.532814	-2.705759	16.909465	3.954796	0.069024	35.230672	3.112151	0.000000	0.303888	0.837174	-0.108668	0.564350	1.113442	-0.115460	0.499257	2.035505	-0.115460	0.347313	2.035505	-0.095084	0.282190	1.707166	-0.088293	0.173641	1.296783	-0.081501	2.170639	9.470283	-0.604378	0.000000	0.000000	28.255099	3.473410	27.310176	19.701302	-12.088104	46.285853	43.919039	92.024076	-12.143582	-2.220416	17.239632	-4.556376	77.824941	28.977487	40.953199	-8.892893	-9.628812
1.847458	7.371136	-4.377278	98.499525	0.119816	0.816879	0.819497	13.701342	3.407442	-11.379233	13.303036	0.232182	37.039992	14.472144	0.000000	10.152714	-2.710959	17.074765	4.255902	0.074280	35.166472	3.386065	0.000000	0.333297	0.830404	-0.291743	0.618965	1.104437	-0.309977	0.547573	2.019044	-0.309977	0.380925	2.019044	-0.255275	0.309499	1.693359	-0.237041	0.190446	1.286295	-0.218807	2.380705	9.393693	-1.622586	0.000000	0.000000	28.187559	4.155251	27.499682	20.828669	-11.408718	49.675601	45.091647	89.899054	-10.542516	-0.900361	17.464647	-5.428171	69.026508	32.875797	47.882355	-7.093188	-7.131999
1.864407	7.460614	-4.457239	98.904694	0.119907	0.816773	0.821699	13.836561	3.488929	-11.395059	13.084185	0.228362	36.793151	13.981328	0.000000	10.522104	-2.739486	17.225883	4.487380	0.078320	35.105464	3.662944	0.000000	0.351810	0.825042	-0.466246	0.653347	1.097306	-0.495386	0.577989	2.006008	-0.495386	0.402084	2.006008	-0.407965	0.326691	1.682426	-0.378825	0.201024	1.277991	-0.349684	2.512947	9.333044	-2.593118	0.000000	0.000000	28.068787	4.646195	27.254299	21.951487	-10.769257	53.946303	45.893205	86.005965	-8.843865	0.584936	17.718510	-6.267688	61.279318	36.468185	54.927075	-5.379033	-4.655596
1.881356	7.540352	-4.417008	99.240485	0.119939	0.816958	0.823217	13.789891	3.578147	-11.459293	12.837697	0.224060	36.532631	13.585958	0.000000	10.684558	-2.779580	17.428643	4.651157	0.081178	35.024912	3.877799	0.000000	0.362583	0.820728	-0.637836	0.673353	1.091568	-0.677701	0.595688	1.995518	-0.677701	0.414396	1.995518	-0.558107	0.336695	1.673628	-0.518242	0.207180	1.271307	-0.478377	2.589894	9.284238	-3.547455	0.000000	0.000000	27.949874	4.983479	26.678260	23.000030	-10.151254	58.557465	46.395375	81.102017	-7.073355	2.257767	17.882786	-6.994358	55.023508	39.521302	61.950968	-3.873737	-2.200718
